name C:/MyDriveSym/Projects/mobilecap/Data\Session20210903_0002\mocap\ForceDataProcessed\walking1_forces.mot
datacolumns 19
datarows 12
range 0.93700000 0.94250000
endheader 
time	R_ground_force_vx	R_ground_force_vy	R_ground_force_vz	R_ground_force_px	R_ground_force_py	R_ground_force_pz	R_ground_torque_x	R_ground_torque_y	R_ground_torque_z	L_ground_force_vx	L_ground_force_vy	L_ground_force_vz	L_ground_force_px	L_ground_force_py	L_ground_force_pz	L_ground_torque_x	L_ground_torque_y	L_ground_torque_z	
          0.93700000	          0.00000000	          0.00000000	          0.00000000	          1.33888700	          0.00000000	         -0.22447200	          0.00000000	          0.00000000	          0.00000000	         47.45978300	        531.09930600	         20.37452600	          0.99992200	          0.00600000	         -0.33343200	          0.00000000	          1.01879000	          0.00000000	
          0.93750000	          0.00000000	          0.00000000	          0.00000000	          1.34065400	          0.00000000	         -0.22451100	          0.00000000	          0.00000000	          0.00000000	         47.86705100	        531.69201100	         20.38928200	          0.99999300	          0.00600000	         -0.33341000	          0.00000000	          1.01385400	          0.00000000	
          0.93800000	          0.00000000	          0.00000000	          0.00000000	          1.34242200	          0.00000000	         -0.22454900	          0.00000000	          0.00000000	          0.00000000	         48.27500000	        532.28178100	         20.40361600	          1.00006500	          0.00600000	         -0.33338800	          0.00000000	          1.00890000	          0.00000000	
          0.93850000	          0.00000000	          0.00000000	          0.00000000	          1.34418900	          0.00000000	         -0.22458700	          0.00000000	          0.00000000	          0.00000000	         48.68361600	        532.86853200	         20.41752000	          1.00013600	          0.00600000	         -0.33336600	          0.00000000	          1.00393000	          0.00000000	
          0.93900000	          0.00000000	          0.00000000	          0.00000000	          1.34595600	          0.00000000	         -0.22462500	          0.00000000	          0.00000000	          0.00000000	         49.09288200	        533.45217700	         20.43098500	          1.00020700	          0.00600000	         -0.33334400	          0.00000000	          0.99894400	          0.00000000	
          0.93950000	          0.00000000	          0.00000000	          0.00000000	          1.34772300	          0.00000000	         -0.22466300	          0.00000000	          0.00000000	          0.00000000	         49.50278100	        534.03263300	         20.44400100	          1.00027800	          0.00600000	         -0.33332200	          0.00000000	          0.99394400	          0.00000000	
          0.94000000	          0.00000000	          0.00000000	          0.00000000	          1.34949100	          0.00000000	         -0.22470200	          0.00000000	          0.00000000	          0.00000000	         49.91329800	        534.60981100	         20.45656000	          1.00035000	          0.00600000	         -0.33330000	          0.00000000	          0.98893000	          0.00000000	
          0.94050000	          0.00000000	          0.00000000	          0.00000000	          1.35125800	          0.00000000	         -0.22474000	          0.00000000	          0.00000000	          0.00000000	         50.32441500	        535.18362600	         20.46865300	          1.00042100	          0.00600000	         -0.33327800	          0.00000000	          0.98390400	          0.00000000	
          0.94100000	          0.00000000	          0.00000000	          0.00000000	          1.35302500	          0.00000000	         -0.22477800	          0.00000000	          0.00000000	          0.00000000	         50.73611600	        535.75399100	         20.48027200	          1.00049200	          0.00600000	         -0.33325600	          0.00000000	          0.97886500	          0.00000000	
          0.94150000	          0.00000000	          0.00000000	          0.00000000	          1.35479200	          0.00000000	         -0.22481600	          0.00000000	          0.00000000	          0.00000000	         51.14838300	        536.32081900	         20.49140700	          1.00056300	          0.00600000	         -0.33323400	          0.00000000	          0.97381600	          0.00000000	
          0.94200000	          0.00000000	          0.00000000	          0.00000000	          1.35656000	          0.00000000	         -0.22485400	          0.00000000	          0.00000000	          0.00000000	         51.56119800	        536.88402400	         20.50205100	          1.00063300	          0.00600000	         -0.33321200	          0.00000000	          0.96875700	          0.00000000	
          0.94250000	          0.00000000	          0.00000000	          0.00000000	          1.35832700	          0.00000000	         -0.22489300	          0.00000000	          0.00000000	          0.00000000	         51.97454500	        537.44351600	         20.51219300	          1.00070400	          0.00600000	         -0.33319100	          0.00000000	          0.96368800	          0.00000000	
